<?xml version="1.0" encoding="UTF-8"?>
<svg version="1.1" xmlns="http://www.w3.org/2000/svg" width="512" height="512">
<path d="M0 0 C0.71865234 0.20367187 1.43730469 0.40734375 2.17773438 0.6171875 C19.44641633 5.69897946 35.33346141 14.32497572 49 26 C50.44632812 27.22009766 50.44632812 27.22009766 51.921875 28.46484375 C58.36618861 34.09916767 63.8277154 40.18916722 69 47 C69.59296875 47.76570313 70.1859375 48.53140625 70.796875 49.3203125 C83.253509 66.17676677 90.31035135 85.50785068 94 106 C94.17200928 106.92611084 94.34401855 107.85222168 94.52124023 108.80639648 C99.16091787 139.75571989 91.20532219 174.46814571 73 200 C72.28328125 201.01320313 71.5665625 202.02640625 70.828125 203.0703125 C66.18140109 209.44976232 61.06154061 215.21384915 55.5 220.8125 C54.88825928 221.42971924 54.27651855 222.04693848 53.64624023 222.68286133 C49.25767265 227 49.25767265 227 47 227 C47.99 231.29 48.98 235.58 50 240 C51.98 239.67 53.96 239.34 56 239 C84.81348554 237.17731638 109.58765255 243.10631461 132 262 C133.24716797 262.95519531 133.24716797 262.95519531 134.51953125 263.9296875 C151.98105365 278.50387155 162.20333087 302.05419716 164.46484375 324.2734375 C166.7832807 351.51211443 159.21855753 375.68483399 142 397 C141.53335937 397.63164062 141.06671875 398.26328125 140.5859375 398.9140625 C127.92837905 415.29900012 104.53426045 427.04623455 84.28386199 429.79844892 C78.90441392 430.27318582 73.48827725 430.14792531 68.09242249 430.14717102 C66.66647744 430.15047373 65.24053333 430.15420015 63.81459039 430.1583125 C59.90494811 430.16829437 55.99532118 430.17204312 52.08566797 430.17470181 C47.86526173 430.17861621 43.64486752 430.18819371 39.42446899 430.19691467 C29.23664122 430.21664683 19.0488125 430.22674107 8.86097041 430.23564246 C4.05788605 430.2400306 -0.74519722 430.24539604 -5.54828072 430.25063133 C-21.52400833 430.26764019 -37.49973527 430.28213315 -53.47547054 430.28938007 C-57.61816852 430.29128982 -61.7608665 430.29321018 -65.90356445 430.29516602 C-66.9331523 430.29564976 -67.96274015 430.2961335 -69.02352763 430.2966319 C-85.69271296 430.30492773 -102.36182643 430.33025866 -119.0309804 430.36274669 C-136.1622687 430.39586201 -153.29352053 430.41383286 -170.42484099 430.41702431 C-180.03636959 430.41918524 -189.64779338 430.42787273 -199.2592907 430.45348549 C-207.44672464 430.47525364 -215.6340283 430.48321293 -223.8214879 430.47351871 C-227.99364458 430.46899169 -232.16553281 430.4707663 -236.33765221 430.49028015 C-240.1681208 430.50804014 -243.99812765 430.50681176 -247.82860202 430.49138286 C-249.84751014 430.48792214 -251.86642383 430.50393659 -253.88526291 430.52098733 C-276.96028883 430.3608257 -298.31913033 420.85508405 -315 405 C-333.09801122 385.77823577 -339.67259419 362.76487183 -339.33984375 336.78515625 C-338.65602855 316.49485553 -329.9398112 299.26815302 -317 284 C-316.37609375 283.26136719 -315.7521875 282.52273438 -315.109375 281.76171875 C-300.01363418 265.38612165 -277.80763181 257.1213144 -256 256 C-256.39832031 254.72769531 -256.39832031 254.72769531 -256.8046875 253.4296875 C-265.03603497 226.09200063 -263.56692499 197.73830444 -250.1875 172.25 C-236.15382882 146.59144672 -213.9021593 128.4779109 -186 120 C-179.35137348 118.16924262 -172.91985013 116.81297702 -166 117 C-165.90295776 116.17145508 -165.90295776 116.17145508 -165.80395508 115.32617188 C-164.32467367 103.0652781 -162.25805655 91.60479292 -158 80 C-157.61972656 78.95714844 -157.23945313 77.91429687 -156.84765625 76.83984375 C-143.98340205 43.96452747 -117.73839737 19.48072846 -86 5 C-59.68684878 -6.00592227 -27.42907511 -7.88555487 0 0 Z " fill="#A3D3F6" transform="translate(339,82)"/>
<path d="M0 0 C0.71865234 0.20367187 1.43730469 0.40734375 2.17773438 0.6171875 C19.44641633 5.69897946 35.33346141 14.32497572 49 26 C49.96421875 26.81339844 50.9284375 27.62679687 51.921875 28.46484375 C58.36618861 34.09916767 63.8277154 40.18916722 69 47 C69.59296875 47.76570313 70.1859375 48.53140625 70.796875 49.3203125 C83.253509 66.17676677 90.31035135 85.50785068 94 106 C94.17200928 106.92611084 94.34401855 107.85222168 94.52124023 108.80639648 C99.16091787 139.75571989 91.20532219 174.46814571 73 200 C72.28328125 201.01320313 71.5665625 202.02640625 70.828125 203.0703125 C66.19934419 209.42548782 61.10260501 215.17266022 55.5625 220.75 C54.95913818 221.35884033 54.35577637 221.96768066 53.73413086 222.5949707 C49.38691963 226.87102679 49.38691963 226.87102679 46 228 C45.46632813 226.98421875 44.93265625 225.9684375 44.3828125 224.921875 C32.98370848 203.66618843 17.41454271 189.05235677 -5.83984375 181.5078125 C-12.9278338 179.84155806 -19.93479681 179.78463978 -27.1875 179.75 C-28.24775391 179.729375 -29.30800781 179.70875 -30.40039062 179.6875 C-38.88354305 179.64614399 -46.78079932 180.83808172 -54.65698242 184.10058594 C-57 185 -57 185 -60 185 C-60.4846875 183.90042969 -60.969375 182.80085937 -61.46875 181.66796875 C-73.46650756 154.98377038 -93.50661768 134.74768988 -121 124 C-135.60055175 118.53469401 -150.53951553 117.73498406 -166 117 C-164.49872946 104.18217832 -162.45207281 92.13355964 -158 80 C-157.61972656 78.95714844 -157.23945313 77.91429687 -156.84765625 76.83984375 C-143.98340205 43.96452747 -117.73839737 19.48072846 -86 5 C-59.68684878 -6.00592227 -27.42907511 -7.88555487 0 0 Z " fill="#FCD020" transform="translate(339,82)"/>
<path d="M0 0 C2.98493701 2.21106445 3.5366173 4.42014515 4.1875 8 C3.04093 15.45270503 -4.11295812 21.35043484 -9.28515625 26.48828125 C-9.93068954 27.135728 -10.57622284 27.78317474 -11.24131775 28.45024109 C-12.59437799 29.80465152 -13.94992371 31.1565832 -15.30786133 32.50610352 C-17.3801326 34.56760592 -19.4414391 36.63964378 -21.50195312 38.71289062 C-22.82487961 40.03449634 -24.14842593 41.35548196 -25.47265625 42.67578125 C-26.39003319 43.59923088 -26.39003319 43.59923088 -27.32594299 44.54133606 C-34.7399004 51.87482923 -34.7399004 51.87482923 -40.3125 52.6875 C-44.03663693 52.1443967 -45.64104076 50.84513183 -48.3125 48.25 C-49.94273814 44.98952371 -49.7798535 42.87198965 -49.3125 39.25 C-47.99238586 37.38621521 -47.99238586 37.38621521 -46.2434082 35.47827148 C-45.60593658 34.7799118 -44.96846497 34.08155212 -44.31167603 33.36203003 C-41.22563946 30.1017859 -38.09735043 26.89191371 -34.91796875 23.72265625 C-34.24453934 23.04827011 -33.57110992 22.37388397 -32.87727356 21.67906189 C-31.4692956 20.27040932 -30.06007776 18.86299501 -28.6496582 17.45678711 C-26.48466396 15.29720227 -24.32512744 13.13226118 -22.16601562 10.96679688 C-20.79198763 9.5934288 -19.41764994 8.22037049 -18.04296875 6.84765625 C-17.39716354 6.19982681 -16.75135834 5.55199738 -16.08598328 4.88453674 C-15.48808487 4.2897905 -14.89018646 3.69504425 -14.27416992 3.08227539 C-13.74901291 2.55791397 -13.2238559 2.03355255 -12.68278503 1.49330139 C-9.10170016 -1.7559261 -4.4186154 -1.43306445 0 0 Z " fill="#FDD020" transform="translate(465.3125,43.75)"/>
<path d="M0 0 C1.86378479 1.32011414 1.86378479 1.32011414 3.77172852 3.0690918 C4.81926804 4.02529922 4.81926804 4.02529922 5.88796997 5.00082397 C9.1482141 8.08686054 12.35808629 11.21514957 15.52734375 14.39453125 C16.20172989 15.06796066 16.87611603 15.74139008 17.57093811 16.43522644 C18.97959068 17.8432044 20.38700499 19.25242224 21.79321289 20.6628418 C23.95279773 22.82783604 26.11773882 24.98737256 28.28320312 27.14648438 C29.6565712 28.52051237 31.02962951 29.89485006 32.40234375 31.26953125 C33.37408791 32.23823906 33.37408791 32.23823906 34.36546326 33.22651672 C35.25758263 34.12336433 35.25758263 34.12336433 36.16772461 35.03833008 C36.69208603 35.56348709 37.21644745 36.0886441 37.75669861 36.62971497 C40.29840247 39.43101382 40.45758616 42.2371711 40.41015625 45.95703125 C40 48 40 48 37.375 51 C32.27046263 54.02491103 32.27046263 54.02491103 28 53 C22.29290121 48.7206406 17.28103045 43.42936627 12.25390625 38.38671875 C11.55732407 37.69109329 10.86074188 36.99546783 10.14305115 36.27876282 C8.68732001 34.82370654 7.2328282 33.36740937 5.77954102 31.90991211 C3.54752732 29.67249105 1.31015865 27.44052323 -0.92773438 25.20898438 C-2.34667534 23.78938346 -3.76530654 22.36947283 -5.18359375 20.94921875 C-5.85329697 20.28153976 -6.52300018 19.61386078 -7.21299744 18.9259491 C-7.82776443 18.30802994 -8.44253143 17.69011078 -9.07592773 17.0534668 C-9.61805405 16.51054489 -10.16018036 15.96762299 -10.71873474 15.4082489 C-12.63612722 13.30082748 -12.99403473 12.05368742 -13.3125 9.1875 C-12.92835642 5.2692355 -11.70743683 3.78706733 -9 1 C-5.73952371 -0.63023814 -3.62198965 -0.4673535 0 0 Z " fill="#FDD020" transform="translate(151,43)"/>
<path d="M0 0 C2.16015625 0.359375 2.16015625 0.359375 4.66015625 2.171875 C7.6177469 6.48502804 7.33655329 10.75755654 7.36328125 15.7890625 C7.36898132 16.616409 7.3746814 17.44375549 7.3805542 18.2961731 C7.38999648 20.04623132 7.39653512 21.79630727 7.40039062 23.54638672 C7.41009472 26.21743931 7.4411241 28.88772175 7.47265625 31.55859375 C7.47918683 33.26041211 7.48443709 34.96223596 7.48828125 36.6640625 C7.50062805 37.46004852 7.51297485 38.25603455 7.5256958 39.07614136 C7.50262926 44.84626033 6.33789731 48.18163394 2.16015625 52.359375 C-0.80559751 53.32124108 -2.44734224 53.47151829 -5.46484375 52.609375 C-8.31955628 51.10689472 -10.29868125 49.88091448 -11.4074707 46.76342773 C-12.03495193 43.2745471 -12.00257811 39.80260148 -12.0078125 36.26953125 C-12.0111409 35.48799179 -12.0144693 34.70645233 -12.01789856 33.90122986 C-12.02295197 32.25129788 -12.02530738 30.60135572 -12.02514648 28.95141602 C-12.02733301 26.43423558 -12.04550534 23.9174936 -12.06445312 21.40039062 C-12.06738742 19.79427233 -12.06937197 18.18815195 -12.0703125 16.58203125 C-12.07749802 15.83292984 -12.08468353 15.08382843 -12.09208679 14.31202698 C-12.07046509 9.34020296 -11.51712146 5.58116025 -8.4921875 1.57421875 C-5.77144133 -0.42614073 -3.26957097 -0.10632751 0 0 Z " fill="#FDCF20" transform="translate(305.83984375,-0.359375)"/>
<path d="M0 0 C0.84812759 -0.00428513 1.69625519 -0.00857025 2.57008362 -0.01298523 C4.36124785 -0.0187201 6.15243537 -0.019235 7.94360352 -0.01489258 C10.67830291 -0.01173388 13.41191876 -0.0351972 16.14648438 -0.06054688 C17.88932156 -0.06282015 19.63216164 -0.06352324 21.375 -0.0625 C22.18972275 -0.07170975 23.0044455 -0.08091949 23.84385681 -0.09040833 C29.66449015 -0.04317117 33.03674936 1.08362436 37.25390625 5.30078125 C38.04891745 12.22873597 38.04891745 12.22873597 35.32861328 15.89697266 C31.04803859 19.24352962 27.78990789 19.00742339 22.5 18.9296875 C21.09319725 18.93330544 21.09319725 18.93330544 19.65797424 18.93699646 C17.68022421 18.93601911 15.70244644 18.92265233 13.72485352 18.89770508 C10.69778636 18.86335365 7.67363243 18.87706224 4.64648438 18.89648438 C2.72264383 18.88958688 0.79881081 18.87991537 -1.125 18.8671875 C-2.0292421 18.87214737 -2.93348419 18.87710724 -3.86512756 18.88221741 C-10.10986741 18.76510736 -10.10986741 18.76510736 -13.28881836 16.44506836 C-15.21617441 13.60908775 -15.67743122 11.73390795 -15.74609375 8.30078125 C-14.64244264 5.28026241 -13.80976178 3.08365551 -11.17944336 1.14770508 C-7.50660906 -0.13061961 -3.84424703 -0.00428979 0 0 Z " fill="#FDD020" transform="translate(474.74609375,198.69921875)"/>
</svg>
